<svg version="1.0" xmlns="http://www.w3.org/2000/svg"
 viewBox="0 0 152.320120 25"
 preserveAspectRatio="xMidYMid meet">
<g transform="translate(-47.839880,86.156095) scale(0.024000,-0.024000)"
fill="#ffffff" stroke="none">
<path d="M2455 3309 c-66 -154 -126 -294 -133 -310 l-12 -30 97 3 97 3 83 200
c45 110 84 204 85 209 2 4 32 -61 67 -145 35 -85 67 -158 72 -163 5 -5 32 5
64 25 97 59 97 41 2 255 -47 104 -88 199 -91 212 -7 21 -12 22 -109 22 l-102
0 -120 -281z"/>
<path d="M6925 3416 c-170 -62 -279 -191 -306 -366 -29 -191 73 -390 245 -473
172 -84 391 -69 535 37 80 59 80 65 12 124 l-58 51 -22 -23 c-12 -13 -45 -36
-74 -52 -47 -26 -61 -29 -147 -29 -85 0 -101 3 -153 30 -221 111 -214 436 11
547 39 19 63 23 137 22 100 0 155 -18 216 -72 l34 -30 60 56 59 55 -39 35
c-22 19 -74 51 -115 70 -72 35 -80 37 -200 40 -113 2 -132 0 -195 -22z"/>
<path d="M3401 3068 c88 -200 176 -400 195 -445 21 -48 42 -83 52 -85 9 -2 49
-3 87 -3 l70 0 27 55 c15 30 52 111 82 180 30 69 106 244 170 389 64 145 116
266 116 267 0 2 -41 4 -91 4 l-90 0 -24 -52 c-13 -29 -76 -174 -140 -323 -64
-148 -120 -276 -124 -283 -4 -8 -66 124 -151 323 l-143 335 -98 0 -97 0 159
-362z"/>
<path d="M4320 2980 l0 -451 88 3 87 3 3 448 2 447 -90 0 -90 0 0 -450z"/>
<path d="M4740 2979 l0 -450 85 2 85 2 1 286 c1 157 1 289 0 294 -4 23 36 -21
239 -269 124 -152 235 -284 247 -294 17 -13 40 -18 87 -18 l65 0 6 42 c3 22 5
223 3 446 l-3 405 -87 3 -88 3 0 -291 c0 -159 -3 -290 -7 -289 -5 0 -116 130
-247 290 l-240 289 -73 0 -73 0 0 -451z"/>
<path d="M5792 2983 l3 -448 345 0 345 0 3 73 3 72 -261 0 -260 0 0 120 0 120
220 0 220 0 0 70 0 70 -217 2 -218 3 -3 107 -3 108 248 2 248 3 3 73 3 72
-341 0 -340 0 2 -447z"/>
<path d="M7550 3355 l0 -75 155 0 155 0 0 -376 0 -375 85 2 c79 2 85 3 86 23
1 11 2 26 4 31 1 6 3 164 3 353 l2 342 150 0 150 0 0 75 0 75 -395 0 -395 0 0
-75z"/>
<path d="M3128 3243 c-70 -105 -235 -233 -370 -287 -133 -52 -182 -61 -353
-61 -177 0 -243 12 -350 65 -33 16 -60 28 -61 27 -5 -4 44 -55 86 -89 218
-178 570 -165 822 28 65 51 149 142 183 199 26 43 77 155 71 155 -2 0 -15 -17
-28 -37z"/>
<path d="M3010 2917 c-19 -18 -50 -44 -69 -59 l-34 -26 17 -43 c10 -24 38 -92
63 -151 l45 -108 105 0 c57 0 103 4 101 9 -24 62 -183 411 -187 411 -4 0 -22
-15 -41 -33z"/>
<path d="M2161 2640 c-23 -52 -41 -99 -41 -103 0 -4 46 -6 101 -5 l101 3 29
70 c34 86 35 95 7 96 -13 0 -53 8 -90 18 l-67 17 -40 -96z"/>
</g>
</svg>
